<svg width="171" height="166" viewBox="0 0 171 166" fill="none" xmlns="http://www.w3.org/2000/svg">
<path fill-rule="evenodd" clip-rule="evenodd" d="M14.0146 2.01645C14.3569 2.08206 14.6429 2.33595 14.8837 2.63693C15.3837 3.26192 15.8405 4.33836 16.265 5.68661C16.6947 7.05143 17.1076 8.75063 17.4978 10.6666C18.2784 14.4996 18.9739 19.2314 19.5298 23.9564C20.0858 28.6824 20.503 33.4096 20.7256 37.2356C20.8369 39.1484 20.8998 40.8394 20.9068 42.1944C20.9137 43.5363 20.8665 44.5845 20.7455 45.1894C20.6501 45.6661 20.6744 46.4696 20.822 47.5478C20.9676 48.6111 21.2259 49.8946 21.5674 51.3052C22.25 54.1255 23.2583 57.4271 24.3363 60.4401C25.4165 63.4592 26.5577 66.1626 27.5017 67.7993C27.7368 68.2069 27.9546 68.5395 28.1511 68.7907C28.353 69.049 28.5097 69.1918 28.6157 69.2539C28.6256 69.2597 28.634 69.2643 28.6412 69.268C28.668 69.2288 28.7152 69.142 28.7632 68.9659C29.069 67.8447 28.9751 65.9328 28.641 63.5945C28.3105 61.2807 27.7586 58.6304 27.2034 56.0767C27.0956 55.5808 26.9877 55.0883 26.8812 54.6027C26.4411 52.5954 26.0266 50.705 25.7568 49.1762C25.5894 48.2278 25.4743 47.4001 25.4452 46.76C25.4307 46.4409 25.4366 46.1511 25.4743 45.9085C25.5094 45.6821 25.583 45.4184 25.7691 45.2323C26.4326 44.5688 27.1917 43.9085 28.1297 43.7745C29.1066 43.6349 30.1271 44.0774 31.282 45.2323C31.9278 45.8781 32.3671 46.9806 32.6955 48.2525C33.0292 49.5443 33.2678 51.0942 33.4628 52.7095C33.612 53.9462 33.7356 55.2156 33.8555 56.4477C34.0522 58.4687 34.2391 60.3889 34.5135 61.898C34.9443 64.2675 36.1365 66.9864 37.7199 69.3341C39.3081 71.689 41.2489 73.6102 43.1386 74.4501C46.278 75.8453 52.6062 77.6582 55.4501 78.4085H85.5903V79.2967H55.3352L55.2796 79.2821C52.4709 78.5429 46.0128 76.6994 42.7779 75.2617C40.6709 74.3252 38.6149 72.2497 36.9835 69.8307C35.3473 67.4045 34.097 64.5723 33.6397 62.0569C33.3598 60.5178 33.1654 58.5248 32.9649 56.4701C32.8455 55.2463 32.724 54.0007 32.581 52.8159C32.3874 51.2117 32.1542 49.7084 31.8356 48.4745C31.5118 47.2207 31.1185 46.3248 30.654 45.8604C29.5885 44.7949 28.8327 44.5712 28.2553 44.6537C27.639 44.7418 27.0658 45.1917 26.3971 45.8604C26.4006 45.8568 26.4023 45.8549 26.4025 45.855C26.4035 45.8557 26.3743 45.9003 26.3519 46.0447C26.3271 46.2044 26.3192 46.4281 26.3324 46.7197C26.3589 47.3008 26.4658 48.0829 26.6314 49.0219C26.8977 50.5308 27.3069 52.3971 27.7466 54.4027C27.8536 54.8906 27.9624 55.3867 28.0713 55.888C28.6264 58.4412 29.1847 61.1199 29.5203 63.4689C29.8524 65.7935 29.9805 67.8784 29.6201 69.1996C29.5297 69.5311 29.382 69.8578 29.1061 70.0387C28.779 70.2531 28.4287 70.1739 28.1665 70.0201C27.916 69.8732 27.6768 69.6261 27.4514 69.3378C27.2204 69.0424 26.9794 68.6715 26.7323 68.243C25.7473 66.5352 24.5847 63.7708 23.5001 60.7393C22.4132 57.7017 21.3953 54.3698 20.7041 51.5141C20.3586 50.0867 20.0931 48.7717 19.942 47.6683C19.793 46.5798 19.7479 45.6487 19.8746 45.0152C19.9756 44.5099 20.0256 43.5458 20.0186 42.1989C20.0117 40.8651 19.9497 39.1908 19.8389 37.2872C19.6175 33.4806 19.202 28.771 18.6477 24.0602C18.0934 19.3484 17.4012 14.6434 16.6275 10.8438C16.2405 8.94342 15.8347 7.27729 15.4178 5.95333C14.9958 4.61279 14.5783 3.67698 14.1902 3.19176C13.9972 2.95052 13.8825 2.89821 13.8516 2.88974C13.8414 2.89564 13.8161 2.91331 13.7787 2.95857C13.6843 3.07291 13.5735 3.28861 13.4618 3.63511C13.3527 3.97341 13.2533 4.40227 13.1633 4.9134C12.8016 6.96723 12.6217 10.1698 12.4827 13.6456C12.4439 14.6156 12.4083 15.606 12.3727 16.5961C12.2814 19.1374 12.1901 21.6766 12.0449 23.8642C11.944 25.3849 11.8163 26.7488 11.6422 27.8351C11.5551 28.3781 11.4552 28.8602 11.3384 29.2621C11.2237 29.6566 11.0838 30.0065 10.9015 30.2616C10.7501 30.4736 10.5932 30.6515 10.4258 30.7742C10.2565 30.8982 10.0356 30.9939 9.78436 30.9525C9.53673 30.9116 9.36436 30.7543 9.25202 30.6045C9.1395 30.4544 9.05403 30.2691 8.98486 30.0789C8.84602 29.697 8.73657 29.1909 8.63576 28.6391C8.57277 28.2943 8.5104 27.9151 8.44588 27.5229C8.40692 27.2861 8.36718 27.0445 8.32605 26.8028C8.10343 25.4949 7.83283 24.1442 7.38574 23.1251C6.93243 22.0918 6.37714 21.5658 5.65525 21.5658C4.86712 21.5658 4.33367 21.9833 3.96452 22.7276C3.58357 23.4958 3.40636 24.5717 3.37921 25.7395C3.35226 26.898 3.47376 28.1025 3.65651 29.0975C3.74781 29.5946 3.85334 30.0336 3.96087 30.3841C4.07172 30.7454 4.17464 30.9787 4.24842 31.0894C4.3306 31.2126 4.48601 31.4215 4.70189 31.7116C6.75569 34.4715 14.283 44.5869 16.3085 58.3602C17.3905 65.7175 23.4709 71.7303 29.5574 75.9909C35.6271 80.2397 41.5836 82.6632 42.2105 82.8722C42.3185 82.9082 42.5876 82.9469 43.0546 82.991C43.295 83.0137 43.5653 83.0361 43.8671 83.0612C44.1329 83.0834 44.4233 83.1075 44.7393 83.1356C46.0705 83.2541 47.7694 83.4363 49.5427 83.8022C52.9711 84.5097 56.8131 85.9302 58.7437 89.0499C59.9226 88.9707 61.6331 88.8227 63.2404 88.615C64.108 88.5029 64.9399 88.3741 65.6393 88.2305C66.3509 88.0844 66.8854 87.9306 67.1842 87.7812C67.2841 87.7313 67.41 87.6712 67.515 87.6507C67.5381 87.6462 67.6248 87.6292 67.727 87.6547C67.7857 87.6694 67.8796 87.7056 67.9587 87.7959C68.0435 87.893 68.0708 88.0061 68.07 88.0969C68.0687 88.2366 68.0026 88.3342 67.9889 88.3544L67.9879 88.3559C67.9641 88.3913 67.939 88.4192 67.9224 88.4366C67.8154 88.5492 67.575 88.724 67.2902 88.915C66.6854 89.3205 65.6851 89.926 64.5322 90.5165C63.3812 91.1061 62.0616 91.6892 60.8218 92.0404C59.6072 92.3844 58.3658 92.5368 57.4381 92.1392C57.1537 92.0174 56.9795 91.9824 56.8866 91.9811C56.8846 92.0083 56.8843 92.0501 56.8912 92.1105C56.9073 92.2532 56.9565 92.4436 57.0421 92.6778C57.3878 93.6243 58.2037 94.9621 58.8663 95.9191L58.2208 96.5163C55.0562 93.9404 49.7288 90.1384 44.0486 87.1161C41.2089 85.6051 38.2903 84.294 35.5165 83.4273C32.8563 82.5961 30.3555 82.1819 28.1964 82.3732C27.4025 85.0435 27.1563 89.2492 28.9349 93.4796C30.7606 97.8219 34.7389 102.236 42.5616 105.043C49.097 104.175 63.7968 106.129 71.3308 120.838L70.5742 121.299C69.4838 119.772 67.5136 117.496 65.1656 115.65C62.8033 113.793 60.1388 112.436 57.6426 112.602C57.3106 112.624 57.0788 112.728 56.9099 112.881C56.7366 113.038 56.5954 113.279 56.504 113.629C56.3172 114.343 56.3655 115.407 56.6463 116.767C57.2041 119.467 58.6285 123.106 60.4556 126.898C62.2793 130.684 64.4903 134.595 66.6029 137.833C68.7275 141.089 70.7178 143.61 72.0945 144.669L72.2836 144.815L72.2666 145.053C72.1232 147.061 72.5307 152.164 75.3018 156.321C76.1135 157.538 77.0942 157.988 78.1122 158.025C79.1622 158.062 80.2999 157.66 81.3795 157.066C82.4524 156.476 83.4253 155.721 84.134 155.107C84.4871 154.802 84.7721 154.534 84.9682 154.343C85.0661 154.247 85.1417 154.171 85.1924 154.119C85.2089 154.103 85.2228 154.088 85.2339 154.077L85.2494 154.061L85.2632 154.046L85.2663 154.043L85.2669 154.042C85.267 154.042 85.2669 154.042 85.5903 154.347C85.9137 154.651 85.9135 154.651 85.9134 154.651L85.907 154.658L85.8902 154.676C85.8756 154.691 85.8544 154.713 85.8268 154.741C85.7717 154.797 85.6912 154.878 85.5879 154.979C85.3815 155.18 85.0836 155.46 84.7151 155.779C83.9805 156.415 82.9551 157.213 81.8075 157.844C80.6668 158.472 79.362 158.958 78.0805 158.912C76.7671 158.865 75.5274 158.261 74.5628 156.814C71.7514 152.596 71.2606 147.496 71.3669 145.225C69.876 143.997 67.8952 141.439 65.8591 138.318C63.7251 135.047 61.4954 131.103 59.6554 127.284C57.8188 123.471 56.3566 119.755 55.7765 116.946C55.4883 115.551 55.4048 114.322 55.6447 113.404C55.7666 112.938 55.9785 112.527 56.313 112.223C56.6519 111.916 57.0828 111.749 57.5835 111.716C60.4162 111.527 63.3028 113.056 65.7144 114.952C66.3817 115.476 67.0187 116.034 67.6152 116.599C59.8599 106.5 48.0753 105.17 42.5756 105.937L42.4679 105.952L42.3654 105.916C34.2681 103.037 30.0573 98.4407 28.1162 93.8238C26.1824 89.2245 26.5203 84.6507 27.437 81.8242L27.525 81.5528L27.8085 81.5201C30.204 81.2436 32.9432 81.6927 35.7814 82.5795C38.6242 83.4679 41.5954 84.8046 44.4658 86.332C49.1525 88.8257 53.5959 91.8407 56.811 94.2813C56.5659 93.8266 56.3528 93.3795 56.2078 92.9825C56.1102 92.7153 56.0359 92.451 56.0086 92.2103C55.9828 91.9816 55.9908 91.7019 56.1406 91.4664C56.3125 91.196 56.5968 91.0924 56.8832 91.0928C57.1507 91.0933 57.4556 91.1804 57.7879 91.3229C58.4146 91.5914 59.3935 91.5218 60.5798 91.1858C61.7408 90.8569 63.0024 90.3022 64.1273 89.726C64.4386 89.5666 64.7381 89.4062 65.0207 89.2494C64.4945 89.3393 63.9294 89.4215 63.3542 89.4959C61.5955 89.7232 59.7203 89.8794 58.5289 89.9538L58.2528 89.9711L58.1156 89.731C56.4416 86.8015 52.8423 85.39 49.3632 84.6721C47.6394 84.3164 45.9799 84.1377 44.6605 84.0203C44.3587 83.9934 44.0699 83.9694 43.8022 83.9471C43.4927 83.9213 43.2115 83.8979 42.9712 83.8752C42.5379 83.8343 42.1547 83.7898 41.9297 83.7148C41.2244 83.4797 35.1905 81.0182 29.048 76.7185C22.9222 72.4304 16.5683 66.2309 15.4298 58.4894C13.4419 44.9715 6.07452 35.05 3.98729 32.2392C3.76204 31.9358 3.59829 31.7153 3.50942 31.582C3.36116 31.3596 3.22816 31.024 3.11176 30.6446C2.99204 30.2543 2.87901 29.7809 2.78296 29.2579C2.59102 28.2129 2.46271 26.9472 2.49128 25.7188C2.51963 24.4996 2.70325 23.2718 3.16883 22.333C3.64621 21.3705 4.44502 20.6777 5.65525 20.6777C6.93174 20.6777 7.7087 21.6505 8.19908 22.7683C8.69566 23.9002 8.98016 25.3527 9.20163 26.6538C9.24476 26.9072 9.28526 27.1535 9.32444 27.3918C9.38774 27.7768 9.44758 28.1407 9.50947 28.4795C9.60989 29.0292 9.70861 29.4702 9.81956 29.7753C9.8625 29.8934 9.90195 29.9758 9.93496 30.0303C9.9934 29.9795 10.0748 29.8909 10.1788 29.7453C10.2741 29.6118 10.3805 29.3754 10.4855 29.0142C10.5884 28.6604 10.6814 28.2174 10.7652 27.6945C10.9328 26.6488 11.0584 25.317 11.1587 23.8054C11.3029 21.6322 11.3934 19.1145 11.4846 16.5788C11.5203 15.5854 11.5561 14.5894 11.5952 13.6101C11.7337 10.1471 11.9147 6.88272 12.2885 4.75938C12.3824 4.22623 12.4903 3.75391 12.6165 3.36255C12.74 2.97939 12.8925 2.63695 13.0938 2.39308C13.3053 2.13693 13.6194 1.9407 14.0146 2.01645ZM9.86669 30.0791C9.86669 30.0791 9.8671 30.0789 9.8679 30.0786L9.86669 30.0791ZM82.0596 158.148C83.3523 157.4 84.5709 156.443 85.2932 155.793L85.8874 156.453C85.1294 157.135 83.8611 158.132 82.5041 158.917C81.8254 159.309 81.1134 159.655 80.4241 159.88C80.0096 160.015 79.5908 160.111 79.1845 160.142C79.8909 161.375 81.692 163.071 85.1093 162.786L85.1831 163.671C80.6898 164.045 78.5639 161.317 78.0636 159.816L77.8304 159.117L78.5579 159.238C78.9918 159.31 79.5319 159.237 80.1484 159.036C80.7599 158.836 81.4135 158.521 82.0596 158.148Z" fill="#DFDFDF"/>
<path d="M9.86669 30.0791C9.86669 30.0791 9.8671 30.0789 9.8679 30.0786M9.98434 30.0971C9.9851 30.0977 9.98548 30.098 9.98547 30.0981M28.6749 69.2817C28.6749 69.2819 28.6736 69.2817 28.6708 69.2808M14.8837 2.63693C14.6429 2.33595 14.3569 2.08206 14.0146 2.01645C13.6194 1.9407 13.3053 2.13693 13.0938 2.39308C12.8925 2.63695 12.74 2.97939 12.6165 3.36255C12.4903 3.75391 12.3824 4.22623 12.2885 4.75938C11.9147 6.88272 11.7337 10.1471 11.5952 13.6101C11.5561 14.5894 11.5203 15.5854 11.4846 16.5788C11.3934 19.1145 11.3029 21.6322 11.1587 23.8054C11.0584 25.317 10.9328 26.6488 10.7652 27.6945C10.6814 28.2174 10.5884 28.6604 10.4855 29.0142C10.3805 29.3754 10.2741 29.6118 10.1788 29.7453C10.0748 29.8909 9.9934 29.9795 9.93496 30.0303C9.90195 29.9758 9.8625 29.8934 9.81956 29.7753C9.70861 29.4702 9.60989 29.0292 9.50947 28.4795C9.44758 28.1407 9.38774 27.7768 9.32444 27.3918C9.28526 27.1535 9.24476 26.9072 9.20163 26.6538C8.98016 25.3527 8.69566 23.9002 8.19908 22.7683C7.7087 21.6505 6.93174 20.6777 5.65525 20.6777C4.44502 20.6777 3.64621 21.3705 3.16883 22.333C2.70325 23.2718 2.51963 24.4996 2.49128 25.7188C2.46271 26.9472 2.59102 28.2129 2.78296 29.2579C2.87901 29.7809 2.99204 30.2543 3.11176 30.6446C3.22816 31.024 3.36116 31.3596 3.50942 31.582C3.59829 31.7153 3.76204 31.9358 3.98729 32.2392C6.07452 35.05 13.4419 44.9716 15.4298 58.4894C16.5683 66.2309 22.9222 72.4304 29.048 76.7185C35.1905 81.0182 41.2244 83.4797 41.9297 83.7148C42.1547 83.7898 42.5379 83.8343 42.9712 83.8752C43.2115 83.8979 43.4927 83.9213 43.8022 83.9471C44.0699 83.9694 44.3588 83.9934 44.6605 84.0203C45.9799 84.1377 47.6394 84.3164 49.3632 84.6721C52.8423 85.39 56.4416 86.8015 58.1156 89.731L58.2528 89.9711L58.5289 89.9538C59.7203 89.8794 61.5955 89.7232 63.3542 89.4959C63.9294 89.4215 64.4945 89.3393 65.0207 89.2494C64.7381 89.4062 64.4386 89.5666 64.1273 89.726C63.0024 90.3022 61.7408 90.8569 60.5798 91.1858C59.3935 91.5218 58.4146 91.5914 57.7879 91.3229C57.4556 91.1804 57.1507 91.0933 56.8832 91.0929C56.5968 91.0924 56.3125 91.196 56.1406 91.4664C55.9908 91.7019 55.9828 91.9816 56.0086 92.2103C56.0359 92.451 56.1102 92.7153 56.2078 92.9825C56.3528 93.3795 56.5659 93.8266 56.811 94.2813C53.5959 91.8407 49.1525 88.8257 44.4658 86.332C41.5954 84.8046 38.6242 83.4679 35.7814 82.5795C32.9432 81.6927 30.204 81.2436 27.8085 81.5201L27.525 81.5528L27.437 81.8242C26.5203 84.6507 26.1824 89.2245 28.1162 93.8238C30.0573 98.4407 34.2681 103.037 42.3654 105.916L42.4679 105.952L42.5755 105.937C48.0753 105.17 59.8599 106.5 67.6152 116.599C67.0187 116.034 66.3817 115.476 65.7144 114.952C63.3028 113.056 60.4162 111.527 57.5835 111.716C57.0828 111.749 56.6519 111.916 56.313 112.223C55.9785 112.527 55.7666 112.938 55.6447 113.404C55.4048 114.322 55.4883 115.551 55.7765 116.946C56.3566 119.755 57.8188 123.471 59.6554 127.284C61.4954 131.103 63.7251 135.047 65.8591 138.318C67.8952 141.439 69.876 143.997 71.3669 145.225C71.2606 147.496 71.7514 152.596 74.5628 156.814C75.5274 158.261 76.7671 158.865 78.0805 158.912C79.362 158.958 80.6668 158.472 81.8075 157.845C82.9551 157.213 83.9805 156.415 84.7152 155.779C85.0836 155.46 85.3815 155.18 85.5879 154.979C85.6912 154.878 85.7717 154.797 85.8268 154.741C85.8544 154.713 85.8756 154.691 85.8902 154.676L85.907 154.658L85.9134 154.651C85.9135 154.651 85.9137 154.651 85.5903 154.347C85.2669 154.042 85.267 154.042 85.2669 154.042L85.2663 154.043L85.2632 154.046L85.2494 154.061L85.2339 154.077C85.2228 154.088 85.2089 154.103 85.1924 154.119C85.1417 154.171 85.0661 154.247 84.9682 154.343C84.7721 154.534 84.4871 154.802 84.134 155.107C83.4253 155.721 82.4524 156.476 81.3795 157.066C80.2999 157.66 79.1622 158.062 78.1122 158.025C77.0942 157.988 76.1135 157.538 75.3018 156.321C72.5307 152.164 72.1232 147.061 72.2666 145.053L72.2836 144.815L72.0944 144.669C70.7178 143.61 68.7275 141.089 66.6029 137.833C64.4903 134.595 62.2793 130.684 60.4556 126.898C58.6285 123.106 57.2041 119.467 56.6463 116.767C56.3655 115.407 56.3172 114.343 56.504 113.629C56.5954 113.279 56.7366 113.038 56.9099 112.881C57.0788 112.728 57.3106 112.624 57.6426 112.602C60.1388 112.436 62.8033 113.793 65.1656 115.65C67.5136 117.496 69.4838 119.772 70.5742 121.299L71.3308 120.838C63.7968 106.129 49.097 104.175 42.5616 105.043C34.7389 102.236 30.7606 97.8219 28.9349 93.4796C27.1563 89.2492 27.4025 85.0435 28.1964 82.3732C30.3555 82.1819 32.8563 82.5961 35.5165 83.4273C38.2903 84.294 41.2089 85.6051 44.0486 87.1161C49.7288 90.1384 55.0562 93.9404 58.2208 96.5163L58.8663 95.9191C58.2037 94.9621 57.3878 93.6243 57.0421 92.6778C56.9565 92.4436 56.9073 92.2532 56.8912 92.1105C56.8843 92.0501 56.8846 92.0083 56.8866 91.9811C56.9795 91.9824 57.1537 92.0174 57.4381 92.1392C58.3658 92.5368 59.6072 92.3844 60.8218 92.0404C62.0615 91.6892 63.3812 91.1061 64.5322 90.5165C65.6851 89.926 66.6854 89.3205 67.2902 88.915C67.575 88.724 67.8154 88.5492 67.9224 88.4366C67.939 88.4192 67.9641 88.3913 67.9879 88.3559L67.9889 88.3544C68.0026 88.3342 68.0687 88.2366 68.07 88.0969C68.0708 88.0061 68.0435 87.893 67.9587 87.7959C67.8796 87.7056 67.7857 87.6694 67.727 87.6547C67.6248 87.6293 67.5381 87.6462 67.515 87.6507C67.41 87.6712 67.2841 87.7313 67.1842 87.7812C66.8854 87.9306 66.3509 88.0844 65.6393 88.2305C64.9399 88.3741 64.108 88.5029 63.2404 88.615C61.6331 88.8227 59.9226 88.9707 58.7437 89.0499C56.8131 85.9302 52.9711 84.5097 49.5427 83.8022C47.7694 83.4363 46.0705 83.2541 44.7393 83.1356C44.4233 83.1075 44.133 83.0834 43.8671 83.0612C43.5653 83.0361 43.295 83.0137 43.0546 82.991C42.5876 82.9469 42.3185 82.9082 42.2105 82.8722C41.5836 82.6632 35.6271 80.2397 29.5574 75.9908C23.4709 71.7303 17.3905 65.7175 16.3085 58.3602C14.283 44.5869 6.75569 34.4715 4.70189 31.7116C4.48601 31.4215 4.3306 31.2126 4.24842 31.0894C4.17464 30.9787 4.07172 30.7454 3.96087 30.3841C3.85334 30.0336 3.74781 29.5946 3.65651 29.0975C3.47376 28.1025 3.35226 26.898 3.37921 25.7395C3.40636 24.5717 3.58357 23.4958 3.96452 22.7276C4.33367 21.9833 4.86712 21.5658 5.65525 21.5658C6.37714 21.5658 6.93243 22.0918 7.38574 23.1251C7.83283 24.1442 8.10343 25.4949 8.32605 26.8028C8.36718 27.0445 8.40692 27.2861 8.44588 27.5229C8.5104 27.9151 8.57277 28.2943 8.63576 28.6391C8.73657 29.1909 8.84602 29.697 8.98486 30.0789C9.05403 30.2691 9.1395 30.4544 9.25202 30.6045C9.36436 30.7543 9.53673 30.9116 9.78436 30.9525C10.0356 30.9939 10.2565 30.8982 10.4258 30.7742C10.5932 30.6515 10.7501 30.4736 10.9015 30.2616C11.0838 30.0065 11.2237 29.6566 11.3384 29.2621C11.4552 28.8602 11.5551 28.3781 11.6422 27.8351C11.8163 26.7488 11.944 25.3849 12.0449 23.8642C12.1901 21.6766 12.2814 19.1374 12.3727 16.5961C12.4083 15.606 12.4439 14.6156 12.4827 13.6456C12.6217 10.1698 12.8016 6.96723 13.1633 4.9134C13.2533 4.40227 13.3527 3.97341 13.4618 3.63511C13.5735 3.28861 13.6843 3.07291 13.7787 2.95857C13.8161 2.91331 13.8414 2.89564 13.8516 2.88974C13.8825 2.89821 13.9972 2.95052 14.1902 3.19176C14.5783 3.67698 14.9958 4.61279 15.4178 5.95333C15.8347 7.27729 16.2405 8.94342 16.6275 10.8438C17.4012 14.6434 18.0934 19.3484 18.6477 24.0602C19.202 28.771 19.6175 33.4806 19.8389 37.2872C19.9497 39.1908 20.0117 40.8651 20.0186 42.1989C20.0256 43.5458 19.9756 44.5099 19.8746 45.0152C19.7479 45.6487 19.793 46.5798 19.942 47.6683C20.0931 48.7717 20.3586 50.0867 20.7041 51.5141C21.3953 54.3698 22.4132 57.7017 23.5001 60.7393C24.5847 63.7708 25.7473 66.5352 26.7323 68.243C26.9794 68.6715 27.2204 69.0424 27.4514 69.3378C27.6768 69.6261 27.916 69.8732 28.1665 70.0201C28.4287 70.1739 28.779 70.2531 29.1061 70.0386C29.382 69.8578 29.5297 69.5311 29.6201 69.1996C29.9805 67.8784 29.8524 65.7935 29.5203 63.4689C29.1847 61.1199 28.6264 58.4412 28.0713 55.888C27.9624 55.3867 27.8536 54.8906 27.7466 54.4027C27.3069 52.3971 26.8977 50.5308 26.6314 49.0219C26.4658 48.0829 26.3589 47.3008 26.3324 46.7197C26.3192 46.4281 26.3271 46.2044 26.3519 46.0447C26.3743 45.9003 26.4035 45.8557 26.4025 45.855C26.4023 45.8549 26.4006 45.8568 26.3971 45.8604C27.0658 45.1916 27.639 44.7418 28.2553 44.6537C28.8327 44.5712 29.5885 44.7949 30.654 45.8604C31.1185 46.3248 31.5118 47.2207 31.8356 48.4746C32.1542 49.7084 32.3874 51.2117 32.581 52.8159C32.724 54.0007 32.8455 55.2463 32.9649 56.4701C33.1654 58.5248 33.3598 60.5178 33.6397 62.0569C34.097 64.5723 35.3473 67.4045 36.9835 69.8307C38.6149 72.2497 40.6709 74.3252 42.7779 75.2617C46.0128 76.6994 52.4709 78.5429 55.2796 79.2821L55.3351 79.2967H85.5903V78.4085H55.4501C52.6062 77.6582 46.278 75.8453 43.1386 74.4501C41.2489 73.6102 39.3081 71.689 37.7199 69.3341C36.1365 66.9864 34.9443 64.2675 34.5135 61.898C34.2391 60.3889 34.0522 58.4687 33.8555 56.4477C33.7356 55.2156 33.612 53.9462 33.4628 52.7095C33.2678 51.0942 33.0292 49.5443 32.6955 48.2525C32.3671 46.9806 31.9278 45.8781 31.282 45.2323C30.1271 44.0774 29.1066 43.6349 28.1297 43.7745C27.1917 43.9085 26.4326 44.5688 25.7691 45.2323C25.583 45.4184 25.5094 45.6821 25.4743 45.9085C25.4366 46.1511 25.4307 46.4409 25.4452 46.76C25.4743 47.4001 25.5894 48.2278 25.7568 49.1762C26.0266 50.705 26.4411 52.5954 26.8812 54.6027C26.9877 55.0883 27.0956 55.5808 27.2034 56.0767C27.7586 58.6304 28.3105 61.2807 28.641 63.5945C28.9751 65.9328 29.069 67.8447 28.7632 68.9659C28.7152 69.142 28.668 69.2288 28.6412 69.268C28.634 69.2643 28.6256 69.2597 28.6157 69.2539C28.5097 69.1918 28.353 69.049 28.1511 68.7907C27.9546 68.5395 27.7368 68.2069 27.5017 67.7993C26.5577 66.1626 25.4165 63.4592 24.3363 60.4401C23.2583 57.4271 22.25 54.1255 21.5674 51.3052C21.2259 49.8946 20.9676 48.6111 20.822 47.5478C20.6744 46.4696 20.6501 45.6661 20.7455 45.1894C20.8665 44.5845 20.9137 43.5363 20.9068 42.1944C20.8998 40.8394 20.8369 39.1484 20.7256 37.2356C20.503 33.4096 20.0858 28.6824 19.5298 23.9564C18.9739 19.2314 18.2784 14.4996 17.4978 10.6666C17.1076 8.75063 16.6947 7.05143 16.265 5.68661C15.8405 4.33836 15.3837 3.26192 14.8837 2.63693ZM85.2932 155.793C84.5709 156.443 83.3523 157.4 82.0596 158.148C81.4135 158.521 80.7599 158.836 80.1484 159.036C79.5319 159.237 78.9918 159.31 78.5579 159.238L77.8304 159.117L78.0636 159.816C78.5639 161.317 80.6898 164.045 85.1831 163.671L85.1093 162.786C81.692 163.071 79.8909 161.375 79.1845 160.142C79.5908 160.111 80.0096 160.015 80.4241 159.88C81.1134 159.655 81.8254 159.309 82.5041 158.917C83.8611 158.132 85.1294 157.135 85.8873 156.453L85.2932 155.793Z" stroke="#DFDFDF" stroke-width="3"/>
<path fill-rule="evenodd" clip-rule="evenodd" d="M156.985 2.01645C156.643 2.08206 156.357 2.33595 156.116 2.63693C155.616 3.26192 155.159 4.33836 154.735 5.68661C154.305 7.05143 153.892 8.75063 153.502 10.6666C152.722 14.4996 152.026 19.2314 151.47 23.9564C150.914 28.6824 150.497 33.4096 150.274 37.2356C150.163 39.1484 150.1 40.8394 150.093 42.1944C150.086 43.5363 150.134 44.5845 150.255 45.1894C150.35 45.6661 150.326 46.4696 150.178 47.5478C150.032 48.6111 149.774 49.8946 149.433 51.3052C148.75 54.1255 147.742 57.4271 146.664 60.4401C145.583 63.4592 144.442 66.1626 143.498 67.7993C143.263 68.2069 143.045 68.5395 142.849 68.7907C142.647 69.049 142.49 69.1918 142.384 69.2539C142.374 69.2597 142.366 69.2643 142.359 69.268C142.332 69.2288 142.285 69.142 142.237 68.9659C141.931 67.8447 142.025 65.9328 142.359 63.5945C142.69 61.2807 143.241 58.6304 143.797 56.0767C143.904 55.5808 144.012 55.0883 144.119 54.6027C144.559 52.5954 144.973 50.705 145.243 49.1762C145.411 48.2278 145.526 47.4001 145.555 46.76C145.569 46.4409 145.563 46.1511 145.526 45.9085C145.491 45.6821 145.417 45.4184 145.231 45.2323C144.567 44.5688 143.808 43.9085 142.87 43.7745C141.893 43.6349 140.873 44.0774 139.718 45.2323C139.072 45.8781 138.633 46.9806 138.304 48.2525C137.971 49.5443 137.732 51.0942 137.537 52.7095C137.388 53.9462 137.264 55.2156 137.144 56.4477C136.948 58.4687 136.761 60.3889 136.486 61.898C136.056 64.2675 134.863 66.9864 133.28 69.3341C131.692 71.689 129.751 73.6102 127.861 74.4501C124.722 75.8453 118.394 77.6582 115.55 78.4085H85.4097V79.2967H115.665L115.72 79.2821C118.529 78.5429 124.987 76.6994 128.222 75.2617C130.329 74.3252 132.385 72.2497 134.016 69.8307C135.653 67.4045 136.903 64.5723 137.36 62.0569C137.64 60.5178 137.835 58.5248 138.035 56.4701C138.154 55.2463 138.276 54.0007 138.419 52.8159C138.613 51.2117 138.846 49.7084 139.164 48.4745C139.488 47.2207 139.882 46.3248 140.346 45.8604C141.412 44.7949 142.167 44.5712 142.745 44.6537C143.361 44.7418 143.934 45.1917 144.603 45.8604C144.599 45.8568 144.598 45.8549 144.597 45.855C144.597 45.8557 144.626 45.9003 144.648 46.0447C144.673 46.2044 144.681 46.4281 144.668 46.7197C144.641 47.3008 144.534 48.0829 144.369 49.0219C144.102 50.5308 143.693 52.3971 143.253 54.4027C143.146 54.8906 143.038 55.3867 142.929 55.888C142.374 58.4412 141.815 61.1199 141.48 63.4689C141.148 65.7935 141.02 67.8784 141.38 69.1996C141.47 69.5311 141.618 69.8578 141.894 70.0387C142.221 70.2531 142.571 70.1739 142.834 70.0201C143.084 69.8732 143.323 69.6261 143.549 69.3378C143.78 69.0424 144.021 68.6715 144.268 68.243C145.253 66.5352 146.415 63.7708 147.5 60.7393C148.587 57.7017 149.605 54.3698 150.296 51.5141C150.641 50.0867 150.907 48.7717 151.058 47.6683C151.207 46.5798 151.252 45.6487 151.125 45.0152C151.024 44.5099 150.974 43.5458 150.981 42.1989C150.988 40.8651 151.05 39.1908 151.161 37.2872C151.383 33.4806 151.798 28.771 152.352 24.0602C152.907 19.3484 153.599 14.6434 154.373 10.8438C154.759 8.94342 155.165 7.27729 155.582 5.95333C156.004 4.61279 156.422 3.67698 156.81 3.19176C157.003 2.95052 157.118 2.89821 157.148 2.88974C157.159 2.89564 157.184 2.91331 157.221 2.95857C157.316 3.07291 157.427 3.28861 157.538 3.63511C157.647 3.97341 157.747 4.40227 157.837 4.9134C158.198 6.96723 158.378 10.1698 158.517 13.6456C158.556 14.6156 158.592 15.606 158.627 16.5961C158.719 19.1374 158.81 21.6766 158.955 23.8642C159.056 25.3849 159.184 26.7488 159.358 27.8351C159.445 28.3781 159.545 28.8602 159.662 29.2621C159.776 29.6566 159.916 30.0065 160.098 30.2616C160.25 30.4736 160.407 30.6515 160.574 30.7742C160.744 30.8982 160.964 30.9939 161.216 30.9525C161.463 30.9116 161.636 30.7543 161.748 30.6045C161.861 30.4544 161.946 30.2691 162.015 30.0789C162.154 29.697 162.263 29.1909 162.364 28.6391C162.427 28.2943 162.49 27.9151 162.554 27.5229C162.593 27.2861 162.633 27.0445 162.674 26.8028C162.897 25.4949 163.167 24.1442 163.614 23.1251C164.068 22.0918 164.623 21.5658 165.345 21.5658C166.133 21.5658 166.666 21.9833 167.035 22.7276C167.416 23.4958 167.594 24.5717 167.621 25.7395C167.648 26.898 167.526 28.1025 167.343 29.0975C167.252 29.5946 167.147 30.0336 167.039 30.3841C166.928 30.7454 166.825 30.9787 166.752 31.0894C166.669 31.2126 166.514 31.4215 166.298 31.7116C164.244 34.4715 156.717 44.5869 154.691 58.3602C153.61 65.7175 147.529 71.7303 141.443 75.9909C135.373 80.2397 129.416 82.6632 128.789 82.8722C128.681 82.9082 128.412 82.9469 127.945 82.991C127.705 83.0137 127.435 83.0361 127.133 83.0612C126.867 83.0834 126.577 83.1075 126.261 83.1356C124.93 83.2541 123.231 83.4363 121.457 83.8022C118.029 84.5097 114.187 85.9302 112.256 89.0499C111.077 88.9707 109.367 88.8227 107.76 88.615C106.892 88.5029 106.06 88.3741 105.361 88.2305C104.649 88.0844 104.115 87.9306 103.816 87.7812C103.716 87.7313 103.59 87.6712 103.485 87.6507C103.462 87.6462 103.375 87.6292 103.273 87.6547C103.214 87.6694 103.12 87.7056 103.041 87.7959C102.956 87.893 102.929 88.0061 102.93 88.0969C102.931 88.2366 102.997 88.3342 103.011 88.3544L103.012 88.3559C103.036 88.3913 103.061 88.4192 103.078 88.4366C103.185 88.5492 103.425 88.724 103.71 88.915C104.315 89.3205 105.315 89.926 106.468 90.5165C107.619 91.1061 108.938 91.6892 110.178 92.0404C111.393 92.3844 112.634 92.5368 113.562 92.1392C113.846 92.0174 114.021 91.9824 114.113 91.9811C114.115 92.0083 114.116 92.0501 114.109 92.1105C114.093 92.2532 114.044 92.4436 113.958 92.6778C113.612 93.6243 112.796 94.9621 112.134 95.9191L112.779 96.5163C115.944 93.9404 121.271 90.1384 126.951 87.1161C129.791 85.6051 132.71 84.294 135.484 83.4273C138.144 82.5961 140.645 82.1819 142.804 82.3732C143.598 85.0435 143.844 89.2492 142.065 93.4796C140.239 97.8219 136.261 102.236 128.438 105.043C121.903 104.175 107.203 106.129 99.6692 120.838L100.426 121.299C101.516 119.772 103.486 117.496 105.834 115.65C108.197 113.793 110.861 112.436 113.357 112.602C113.689 112.624 113.921 112.728 114.09 112.881C114.263 113.038 114.405 113.279 114.496 113.629C114.683 114.343 114.634 115.407 114.354 116.767C113.796 119.467 112.371 123.106 110.544 126.898C108.721 130.684 106.51 134.595 104.397 137.833C102.272 141.089 100.282 143.61 98.9055 144.669L98.7164 144.815L98.7334 145.053C98.8768 147.061 98.4693 152.164 95.6982 156.321C94.8865 157.538 93.9058 157.988 92.8878 158.025C91.8378 158.062 90.7001 157.66 89.6205 157.066C88.5476 156.476 87.5747 155.721 86.866 155.107C86.5129 154.802 86.2279 154.534 86.0318 154.343C85.9339 154.247 85.8583 154.171 85.8076 154.119C85.7911 154.103 85.7772 154.088 85.7661 154.077L85.7506 154.061L85.7368 154.046L85.7337 154.043L85.7331 154.042C85.733 154.042 85.7331 154.042 85.4097 154.347C85.0863 154.651 85.0865 154.651 85.0866 154.651L85.093 154.658L85.1098 154.676C85.1244 154.691 85.1456 154.713 85.1732 154.741C85.2283 154.797 85.3088 154.878 85.4121 154.979C85.6185 155.18 85.9164 155.46 86.2849 155.779C87.0195 156.415 88.0449 157.213 89.1925 157.844C90.3332 158.472 91.638 158.958 92.9195 158.912C94.2329 158.865 95.4726 158.261 96.4372 156.814C99.2486 152.596 99.7394 147.496 99.6331 145.225C101.124 143.997 103.105 141.439 105.141 138.318C107.275 135.047 109.505 131.103 111.345 127.284C113.181 123.471 114.643 119.755 115.224 116.946C115.512 115.551 115.595 114.322 115.355 113.404C115.233 112.938 115.022 112.527 114.687 112.223C114.348 111.916 113.917 111.749 113.417 111.716C110.584 111.527 107.697 113.056 105.286 114.952C104.618 115.476 103.981 116.034 103.385 116.599C111.14 106.5 122.925 105.17 128.424 105.937L128.532 105.952L128.635 105.916C136.732 103.037 140.943 98.4407 142.884 93.8238C144.818 89.2245 144.48 84.6507 143.563 81.8242L143.475 81.5528L143.191 81.5201C140.796 81.2436 138.057 81.6927 135.219 82.5795C132.376 83.4679 129.405 84.8046 126.534 86.332C121.847 88.8257 117.404 91.8407 114.189 94.2813C114.434 93.8266 114.647 93.3795 114.792 92.9825C114.89 92.7153 114.964 92.451 114.991 92.2103C115.017 91.9816 115.009 91.7019 114.859 91.4664C114.687 91.196 114.403 91.0924 114.117 91.0928C113.849 91.0933 113.544 91.1804 113.212 91.3229C112.585 91.5914 111.606 91.5218 110.42 91.1858C109.259 90.8569 107.998 90.3022 106.873 89.726C106.561 89.5666 106.262 89.4062 105.979 89.2494C106.506 89.3393 107.071 89.4215 107.646 89.4959C109.404 89.7232 111.28 89.8794 112.471 89.9538L112.747 89.9711L112.884 89.731C114.558 86.8015 118.158 85.39 121.637 84.6721C123.361 84.3164 125.02 84.1377 126.339 84.0203C126.641 83.9934 126.93 83.9694 127.198 83.9471C127.507 83.9213 127.789 83.8979 128.029 83.8752C128.462 83.8343 128.845 83.7898 129.07 83.7148C129.776 83.4797 135.809 81.0182 141.952 76.7185C148.078 72.4304 154.432 66.2309 155.57 58.4894C157.558 44.9715 164.925 35.05 167.013 32.2392C167.238 31.9358 167.402 31.7153 167.491 31.582C167.639 31.3596 167.772 31.024 167.888 30.6446C168.008 30.2543 168.121 29.7809 168.217 29.2579C168.409 28.2129 168.537 26.9472 168.509 25.7188C168.48 24.4996 168.297 23.2718 167.831 22.333C167.354 21.3705 166.555 20.6777 165.345 20.6777C164.068 20.6777 163.291 21.6505 162.801 22.7683C162.304 23.9002 162.02 25.3527 161.798 26.6538C161.755 26.9072 161.715 27.1535 161.676 27.3918C161.612 27.7768 161.552 28.1407 161.491 28.4795C161.39 29.0292 161.291 29.4702 161.18 29.7753C161.138 29.8934 161.098 29.9758 161.065 30.0303C161.007 29.9795 160.925 29.8909 160.821 29.7453C160.726 29.6118 160.619 29.3754 160.514 29.0142C160.412 28.6604 160.319 28.2174 160.235 27.6945C160.067 26.6488 159.942 25.317 159.841 23.8054C159.697 21.6322 159.607 19.1145 159.515 16.5788C159.48 15.5854 159.444 14.5894 159.405 13.6101C159.266 10.1471 159.085 6.88272 158.711 4.75938C158.618 4.22623 158.51 3.75391 158.384 3.36255C158.26 2.97939 158.108 2.63695 157.906 2.39308C157.695 2.13693 157.381 1.9407 156.985 2.01645ZM161.133 30.0791C161.133 30.0791 161.133 30.0789 161.132 30.0786L161.133 30.0791ZM88.9404 158.148C87.6477 157.4 86.4291 156.443 85.7068 155.793L85.1126 156.453C85.8706 157.135 87.1389 158.132 88.4959 158.917C89.1746 159.309 89.8866 159.655 90.5759 159.88C90.9904 160.015 91.4092 160.111 91.8155 160.142C91.1091 161.375 89.308 163.071 85.8907 162.786L85.8169 163.671C90.3102 164.045 92.4361 161.317 92.9364 159.816L93.1696 159.117L92.4421 159.238C92.0082 159.31 91.4681 159.237 90.8516 159.036C90.2401 158.836 89.5865 158.521 88.9404 158.148Z" fill="#DFDFDF"/>
<path d="M161.133 30.0791C161.133 30.0791 161.133 30.0789 161.132 30.0786M161.016 30.0971C161.015 30.0977 161.015 30.098 161.015 30.0981M142.325 69.2817C142.325 69.2819 142.326 69.2817 142.329 69.2808M156.116 2.63693C156.357 2.33595 156.643 2.08206 156.985 2.01645C157.381 1.9407 157.695 2.13693 157.906 2.39308C158.108 2.63695 158.26 2.97939 158.384 3.36255C158.51 3.75391 158.618 4.22623 158.711 4.75938C159.085 6.88272 159.266 10.1471 159.405 13.6101C159.444 14.5894 159.48 15.5854 159.515 16.5788C159.607 19.1145 159.697 21.6322 159.841 23.8054C159.942 25.317 160.067 26.6488 160.235 27.6945C160.319 28.2174 160.412 28.6604 160.514 29.0142C160.619 29.3754 160.726 29.6118 160.821 29.7453C160.925 29.8909 161.007 29.9795 161.065 30.0303C161.098 29.9758 161.138 29.8934 161.18 29.7753C161.291 29.4702 161.39 29.0292 161.491 28.4795C161.552 28.1407 161.612 27.7768 161.676 27.3918C161.715 27.1535 161.755 26.9072 161.798 26.6538C162.02 25.3527 162.304 23.9002 162.801 22.7683C163.291 21.6505 164.068 20.6777 165.345 20.6777C166.555 20.6777 167.354 21.3705 167.831 22.333C168.297 23.2718 168.48 24.4996 168.509 25.7188C168.537 26.9472 168.409 28.2129 168.217 29.2579C168.121 29.7809 168.008 30.2543 167.888 30.6446C167.772 31.024 167.639 31.3596 167.491 31.582C167.402 31.7153 167.238 31.9358 167.013 32.2392C164.925 35.05 157.558 44.9716 155.57 58.4894C154.432 66.2309 148.078 72.4304 141.952 76.7185C135.809 81.0182 129.776 83.4797 129.07 83.7148C128.845 83.7898 128.462 83.8343 128.029 83.8752C127.789 83.8979 127.507 83.9213 127.198 83.9471C126.93 83.9694 126.641 83.9934 126.339 84.0203C125.02 84.1377 123.361 84.3164 121.637 84.6721C118.158 85.39 114.558 86.8015 112.884 89.731L112.747 89.9711L112.471 89.9538C111.28 89.8794 109.404 89.7232 107.646 89.4959C107.071 89.4215 106.506 89.3393 105.979 89.2494C106.262 89.4062 106.561 89.5666 106.873 89.726C107.998 90.3022 109.259 90.8569 110.42 91.1858C111.606 91.5218 112.585 91.5914 113.212 91.3229C113.544 91.1804 113.849 91.0933 114.117 91.0929C114.403 91.0924 114.687 91.196 114.859 91.4664C115.009 91.7019 115.017 91.9816 114.991 92.2103C114.964 92.451 114.89 92.7153 114.792 92.9825C114.647 93.3795 114.434 93.8266 114.189 94.2813C117.404 91.8407 121.847 88.8257 126.534 86.332C129.405 84.8046 132.376 83.4679 135.219 82.5795C138.057 81.6927 140.796 81.2436 143.191 81.5201L143.475 81.5528L143.563 81.8242C144.48 84.6507 144.818 89.2245 142.884 93.8238C140.943 98.4407 136.732 103.037 128.635 105.916L128.532 105.952L128.424 105.937C122.925 105.17 111.14 106.5 103.385 116.599C103.981 116.034 104.618 115.476 105.286 114.952C107.697 113.056 110.584 111.527 113.417 111.716C113.917 111.749 114.348 111.916 114.687 112.223C115.022 112.527 115.233 112.938 115.355 113.404C115.595 114.322 115.512 115.551 115.224 116.946C114.643 119.755 113.181 123.471 111.345 127.284C109.505 131.103 107.275 135.047 105.141 138.318C103.105 141.439 101.124 143.997 99.6331 145.225C99.7394 147.496 99.2486 152.596 96.4372 156.814C95.4726 158.261 94.2329 158.865 92.9195 158.912C91.638 158.958 90.3332 158.472 89.1925 157.845C88.0449 157.213 87.0195 156.415 86.2848 155.779C85.9164 155.46 85.6185 155.18 85.4121 154.979C85.3088 154.878 85.2283 154.797 85.1732 154.741C85.1456 154.713 85.1244 154.691 85.1098 154.676L85.093 154.658L85.0866 154.651C85.0865 154.651 85.0863 154.651 85.4097 154.347C85.7331 154.042 85.733 154.042 85.7331 154.042L85.7337 154.043L85.7368 154.046L85.7506 154.061L85.7661 154.077C85.7772 154.088 85.7911 154.103 85.8076 154.119C85.8583 154.171 85.9339 154.247 86.0318 154.343C86.2279 154.534 86.5129 154.802 86.866 155.107C87.5747 155.721 88.5476 156.476 89.6205 157.066C90.7001 157.66 91.8378 158.062 92.8878 158.025C93.9058 157.988 94.8865 157.538 95.6982 156.321C98.4693 152.164 98.8768 147.061 98.7334 145.053L98.7164 144.815L98.9056 144.669C100.282 143.61 102.272 141.089 104.397 137.833C106.51 134.595 108.721 130.684 110.544 126.898C112.371 123.106 113.796 119.467 114.354 116.767C114.634 115.407 114.683 114.343 114.496 113.629C114.405 113.279 114.263 113.038 114.09 112.881C113.921 112.728 113.689 112.624 113.357 112.602C110.861 112.436 108.197 113.793 105.834 115.65C103.486 117.496 101.516 119.772 100.426 121.299L99.6692 120.838C107.203 106.129 121.903 104.175 128.438 105.043C136.261 102.236 140.239 97.8219 142.065 93.4796C143.844 89.2492 143.598 85.0435 142.804 82.3732C140.645 82.1819 138.144 82.5961 135.484 83.4273C132.71 84.294 129.791 85.6051 126.951 87.1161C121.271 90.1384 115.944 93.9404 112.779 96.5163L112.134 95.9191C112.796 94.9621 113.612 93.6243 113.958 92.6778C114.044 92.4436 114.093 92.2532 114.109 92.1105C114.116 92.0501 114.115 92.0083 114.113 91.9811C114.021 91.9824 113.846 92.0174 113.562 92.1392C112.634 92.5368 111.393 92.3844 110.178 92.0404C108.938 91.6892 107.619 91.1061 106.468 90.5165C105.315 89.926 104.315 89.3205 103.71 88.915C103.425 88.724 103.185 88.5492 103.078 88.4366C103.061 88.4192 103.036 88.3913 103.012 88.3559L103.011 88.3544C102.997 88.3342 102.931 88.2366 102.93 88.0969C102.929 88.0061 102.956 87.893 103.041 87.7959C103.12 87.7056 103.214 87.6694 103.273 87.6547C103.375 87.6293 103.462 87.6462 103.485 87.6507C103.59 87.6712 103.716 87.7313 103.816 87.7812C104.115 87.9306 104.649 88.0844 105.361 88.2305C106.06 88.3741 106.892 88.5029 107.76 88.615C109.367 88.8227 111.077 88.9707 112.256 89.0499C114.187 85.9302 118.029 84.5097 121.457 83.8022C123.231 83.4363 124.93 83.2541 126.261 83.1356C126.577 83.1075 126.867 83.0834 127.133 83.0612C127.435 83.0361 127.705 83.0137 127.945 82.991C128.412 82.9469 128.681 82.9082 128.789 82.8722C129.416 82.6632 135.373 80.2397 141.443 75.9908C147.529 71.7303 153.61 65.7175 154.691 58.3602C156.717 44.5869 164.244 34.4715 166.298 31.7116C166.514 31.4215 166.669 31.2126 166.752 31.0894C166.825 30.9787 166.928 30.7454 167.039 30.3841C167.147 30.0336 167.252 29.5946 167.343 29.0975C167.526 28.1025 167.648 26.898 167.621 25.7395C167.594 24.5717 167.416 23.4958 167.035 22.7276C166.666 21.9833 166.133 21.5658 165.345 21.5658C164.623 21.5658 164.068 22.0918 163.614 23.1251C163.167 24.1442 162.897 25.4949 162.674 26.8028C162.633 27.0445 162.593 27.2861 162.554 27.5229C162.49 27.9151 162.427 28.2943 162.364 28.6391C162.263 29.1909 162.154 29.697 162.015 30.0789C161.946 30.2691 161.861 30.4544 161.748 30.6045C161.636 30.7543 161.463 30.9116 161.216 30.9525C160.964 30.9939 160.744 30.8982 160.574 30.7742C160.407 30.6515 160.25 30.4736 160.098 30.2616C159.916 30.0065 159.776 29.6566 159.662 29.2621C159.545 28.8602 159.445 28.3781 159.358 27.8351C159.184 26.7488 159.056 25.3849 158.955 23.8642C158.81 21.6766 158.719 19.1374 158.627 16.5961C158.592 15.606 158.556 14.6156 158.517 13.6456C158.378 10.1698 158.198 6.96723 157.837 4.9134C157.747 4.40227 157.647 3.97341 157.538 3.63511C157.427 3.28861 157.316 3.07291 157.221 2.95857C157.184 2.91331 157.159 2.89564 157.148 2.88974C157.118 2.89821 157.003 2.95052 156.81 3.19176C156.422 3.67698 156.004 4.61279 155.582 5.95333C155.165 7.27729 154.759 8.94342 154.373 10.8438C153.599 14.6434 152.907 19.3484 152.352 24.0602C151.798 28.771 151.383 33.4806 151.161 37.2872C151.05 39.1908 150.988 40.8651 150.981 42.1989C150.974 43.5458 151.024 44.5099 151.125 45.0152C151.252 45.6487 151.207 46.5798 151.058 47.6683C150.907 48.7717 150.641 50.0867 150.296 51.5141C149.605 54.3698 148.587 57.7017 147.5 60.7393C146.415 63.7708 145.253 66.5352 144.268 68.243C144.021 68.6715 143.78 69.0424 143.549 69.3378C143.323 69.6261 143.084 69.8732 142.834 70.0201C142.571 70.1739 142.221 70.2531 141.894 70.0386C141.618 69.8578 141.47 69.5311 141.38 69.1996C141.02 67.8784 141.148 65.7935 141.48 63.4689C141.815 61.1199 142.374 58.4412 142.929 55.888C143.038 55.3867 143.146 54.8906 143.253 54.4027C143.693 52.3971 144.102 50.5308 144.369 49.0219C144.534 48.0829 144.641 47.3008 144.668 46.7197C144.681 46.4281 144.673 46.2044 144.648 46.0447C144.626 45.9003 144.597 45.8557 144.597 45.855C144.598 45.8549 144.599 45.8568 144.603 45.8604C143.934 45.1916 143.361 44.7418 142.745 44.6537C142.167 44.5712 141.412 44.7949 140.346 45.8604C139.882 46.3248 139.488 47.2207 139.164 48.4746C138.846 49.7084 138.613 51.2117 138.419 52.8159C138.276 54.0007 138.154 55.2463 138.035 56.4701C137.835 58.5248 137.64 60.5178 137.36 62.0569C136.903 64.5723 135.653 67.4045 134.016 69.8307C132.385 72.2497 130.329 74.3252 128.222 75.2617C124.987 76.6994 118.529 78.5429 115.72 79.2821L115.665 79.2967H85.4097V78.4085H115.55C118.394 77.6582 124.722 75.8453 127.861 74.4501C129.751 73.6102 131.692 71.689 133.28 69.3341C134.863 66.9864 136.056 64.2675 136.486 61.898C136.761 60.3889 136.948 58.4687 137.144 56.4477C137.264 55.2156 137.388 53.9462 137.537 52.7095C137.732 51.0942 137.971 49.5443 138.304 48.2525C138.633 46.9806 139.072 45.8781 139.718 45.2323C140.873 44.0774 141.893 43.6349 142.87 43.7745C143.808 43.9085 144.567 44.5688 145.231 45.2323C145.417 45.4184 145.491 45.6821 145.526 45.9085C145.563 46.1511 145.569 46.4409 145.555 46.76C145.526 47.4001 145.411 48.2278 145.243 49.1762C144.973 50.705 144.559 52.5954 144.119 54.6027C144.012 55.0883 143.904 55.5808 143.797 56.0767C143.241 58.6304 142.69 61.2807 142.359 63.5945C142.025 65.9328 141.931 67.8447 142.237 68.9659C142.285 69.142 142.332 69.2288 142.359 69.268C142.366 69.2643 142.374 69.2597 142.384 69.2539C142.49 69.1918 142.647 69.049 142.849 68.7907C143.045 68.5395 143.263 68.2069 143.498 67.7993C144.442 66.1626 145.583 63.4592 146.664 60.4401C147.742 57.4271 148.75 54.1255 149.433 51.3052C149.774 49.8946 150.032 48.6111 150.178 47.5478C150.326 46.4696 150.35 45.6661 150.255 45.1894C150.134 44.5845 150.086 43.5363 150.093 42.1944C150.1 40.8394 150.163 39.1484 150.274 37.2356C150.497 33.4096 150.914 28.6824 151.47 23.9564C152.026 19.2314 152.722 14.4996 153.502 10.6666C153.892 8.75063 154.305 7.05143 154.735 5.68661C155.159 4.33836 155.616 3.26192 156.116 2.63693ZM85.7068 155.793C86.4291 156.443 87.6477 157.4 88.9404 158.148C89.5865 158.521 90.2401 158.836 90.8516 159.036C91.4681 159.237 92.0082 159.31 92.4421 159.238L93.1696 159.117L92.9364 159.816C92.4361 161.317 90.3102 164.045 85.8169 163.671L85.8907 162.786C89.308 163.071 91.1091 161.375 91.8155 160.142C91.4092 160.111 90.9904 160.015 90.5759 159.88C89.8866 159.655 89.1746 159.309 88.4959 158.917C87.1389 158.132 85.8706 157.135 85.1127 156.453L85.7068 155.793Z" stroke="#DFDFDF" stroke-width="3"/>
<path d="M86.0866 72.7178H118.505C120.429 68.277 126.498 56.3755 135.38 44.2965C131.383 44.7405 123.567 46.961 124.278 52.29C125.166 58.9512 110.067 59.8394 110.067 53.1781C110.067 46.5169 112.288 46.0728 113.62 44.2965C112.584 43.1122 110.6 39.9444 110.955 36.747C109.919 38.8194 107.314 42.7866 105.182 42.076C105.182 42.9642 105.537 45.3623 106.959 47.8491C105.478 49.9215 101.807 53.8887 98.965 53.1781C95.4124 52.29 91.8597 51.4018 87.863 42.5201C87.863 41.1879 88.7511 37.3688 92.3038 32.7503C90.2314 32.0102 86.0866 28.8424 86.0866 22.0923" stroke="#DFDFDF" stroke-width="4"/>
<path d="M84.6426 72.7178H52.2245C50.3002 68.277 44.231 56.3755 35.3494 44.2965C39.3461 44.7405 47.162 46.961 46.4515 52.29C45.5633 58.9512 60.6621 59.8394 60.6621 53.1781C60.6621 46.5169 58.4417 46.0728 57.1095 44.2965C58.1457 43.1122 60.1292 39.9444 59.774 36.747C60.8102 38.8194 63.4154 42.7866 65.547 42.076C65.547 42.9642 65.1918 45.3623 63.7707 47.8491C65.251 49.9215 68.9221 53.8887 71.7642 53.1781C75.3169 52.29 78.8695 51.4018 82.8663 42.5201C82.8663 41.1879 81.9781 37.3688 78.4255 32.7503C80.4979 32.0102 84.6426 28.8424 84.6426 22.0923" stroke="#DFDFDF" stroke-width="4"/>
<path d="M87.5 72.7178H83.7544" stroke="#DFDFDF" stroke-width="4"/>
</svg>
